<svg width="60" height="60" viewBox="0 0 60 60" fill="none" xmlns="http://www.w3.org/2000/svg">
<circle cx="30" cy="30" r="30" fill="#FF5656"/>
<circle cx="30" cy="30" r="12.5" stroke="white" stroke-width="3"/>
<path d="M28.7785 26C28.7785 26.54 28.6852 27.03 28.4985 27.47C28.3118 27.91 28.0585 28.29 27.7385 28.61C27.4252 28.9233 27.0618 29.1667 26.6485 29.34C26.2352 29.5067 25.8052 29.59 25.3585 29.59C24.8652 29.59 24.4118 29.5067 23.9985 29.34C23.5852 29.1667 23.2252 28.9233 22.9185 28.61C22.6185 28.29 22.3818 27.91 22.2085 27.47C22.0418 27.03 21.9585 26.54 21.9585 26C21.9585 25.44 22.0418 24.9367 22.2085 24.49C22.3818 24.0367 22.6185 23.6533 22.9185 23.34C23.2252 23.02 23.5852 22.7733 23.9985 22.6C24.4118 22.4267 24.8652 22.34 25.3585 22.34C25.8518 22.34 26.3085 22.4267 26.7285 22.6C27.1485 22.7733 27.5085 23.02 27.8085 23.34C28.1152 23.6533 28.3518 24.0367 28.5185 24.49C28.6918 24.9367 28.7785 25.44 28.7785 26ZM26.6585 26C26.6585 25.64 26.6252 25.34 26.5585 25.1C26.4918 24.8533 26.3985 24.6567 26.2785 24.51C26.1652 24.3633 26.0285 24.26 25.8685 24.2C25.7085 24.1333 25.5385 24.1 25.3585 24.1C25.1785 24.1 25.0085 24.1333 24.8485 24.2C24.6952 24.26 24.5618 24.3633 24.4485 24.51C24.3418 24.6567 24.2552 24.8533 24.1885 25.1C24.1285 25.34 24.0985 25.64 24.0985 26C24.0985 26.3533 24.1285 26.6467 24.1885 26.88C24.2552 27.1133 24.3418 27.3033 24.4485 27.45C24.5618 27.59 24.6952 27.69 24.8485 27.75C25.0085 27.81 25.1785 27.84 25.3585 27.84C25.5385 27.84 25.7085 27.81 25.8685 27.75C26.0285 27.69 26.1652 27.59 26.2785 27.45C26.3985 27.3033 26.4918 27.1133 26.5585 26.88C26.6252 26.6467 26.6585 26.3533 26.6585 26ZM33.4785 22.91C33.5718 22.8033 33.6818 22.7067 33.8085 22.62C33.9418 22.5333 34.1252 22.49 34.3585 22.49H36.3685L25.5185 36.6C25.4252 36.7133 25.3118 36.81 25.1785 36.89C25.0452 36.9633 24.8818 37 24.6885 37H22.6385L33.4785 22.91ZM37.0385 33.59C37.0385 34.13 36.9452 34.62 36.7585 35.06C36.5718 35.5 36.3185 35.88 35.9985 36.2C35.6852 36.5133 35.3218 36.7567 34.9085 36.93C34.4952 37.0967 34.0652 37.18 33.6185 37.18C33.1252 37.18 32.6718 37.0967 32.2585 36.93C31.8452 36.7567 31.4852 36.5133 31.1785 36.2C30.8785 35.88 30.6418 35.5 30.4685 35.06C30.3018 34.62 30.2185 34.13 30.2185 33.59C30.2185 33.03 30.3018 32.5267 30.4685 32.08C30.6418 31.6267 30.8785 31.2433 31.1785 30.93C31.4852 30.61 31.8452 30.3667 32.2585 30.2C32.6718 30.0267 33.1252 29.94 33.6185 29.94C34.1118 29.94 34.5685 30.0267 34.9885 30.2C35.4085 30.3667 35.7685 30.61 36.0685 30.93C36.3752 31.2433 36.6118 31.6267 36.7785 32.08C36.9518 32.5267 37.0385 33.03 37.0385 33.59ZM34.9185 33.59C34.9185 33.23 34.8852 32.93 34.8185 32.69C34.7518 32.4433 34.6585 32.2467 34.5385 32.1C34.4252 31.9533 34.2885 31.85 34.1285 31.79C33.9685 31.7233 33.7985 31.69 33.6185 31.69C33.4385 31.69 33.2685 31.7233 33.1085 31.79C32.9552 31.85 32.8218 31.9533 32.7085 32.1C32.6018 32.2467 32.5152 32.4433 32.4485 32.69C32.3885 32.93 32.3585 33.23 32.3585 33.59C32.3585 33.9433 32.3885 34.2367 32.4485 34.47C32.5152 34.7033 32.6018 34.8933 32.7085 35.04C32.8218 35.18 32.9552 35.28 33.1085 35.34C33.2685 35.4 33.4385 35.43 33.6185 35.43C33.7985 35.43 33.9685 35.4 34.1285 35.34C34.2885 35.28 34.4252 35.18 34.5385 35.04C34.6585 34.8933 34.7518 34.7033 34.8185 34.47C34.8852 34.2367 34.9185 33.9433 34.9185 33.59Z" fill="white"/>
</svg>
