<svg width="60" height="60" viewBox="0 0 60 60" fill="none" xmlns="http://www.w3.org/2000/svg">
<circle cx="30" cy="30" r="30" fill="#FF5656"/>
<path d="M35.3125 31.0832C35.3125 32.5198 34.7528 33.8975 33.7565 34.9133C32.7602 35.9292 31.409 36.4998 30 36.4998C28.591 36.4998 27.2398 35.9292 26.2435 34.9133C25.2472 33.8975 24.6875 32.5198 24.6875 31.0832C24.6875 29.6466 25.2472 28.2688 26.2435 27.253C27.2398 26.2372 28.591 25.6665 30 25.6665C31.409 25.6665 32.7602 26.2372 33.7565 27.253C34.7528 28.2688 35.3125 29.6466 35.3125 31.0832V31.0832Z" fill="white"/>
<path d="M17.25 21.3333C16.1228 21.3333 15.0418 21.7899 14.2448 22.6025C13.4478 23.4152 13 24.5174 13 25.6667V38.6667C13 39.8159 13.4478 40.9181 14.2448 41.7308C15.0418 42.5435 16.1228 43 17.25 43H42.75C43.8772 43 44.9582 42.5435 45.7552 41.7308C46.5522 40.9181 47 39.8159 47 38.6667V25.6667C47 24.5174 46.5522 23.4152 45.7552 22.6025C44.9582 21.7899 43.8772 21.3333 42.75 21.3333H40.2595C39.1324 21.3331 38.0516 20.8764 37.2547 20.0637L35.4953 18.2697C34.6984 17.457 33.6176 17.0002 32.4905 17H27.5095C26.3824 17.0002 25.3016 17.457 24.5048 18.2697L22.7452 20.0637C21.9484 20.8764 20.8676 21.3331 19.7405 21.3333H17.25ZM18.3125 25.6667C18.0307 25.6667 17.7605 25.5525 17.5612 25.3494C17.3619 25.1462 17.25 24.8707 17.25 24.5833C17.25 24.296 17.3619 24.0205 17.5612 23.8173C17.7605 23.6141 18.0307 23.5 18.3125 23.5C18.5943 23.5 18.8645 23.6141 19.0638 23.8173C19.2631 24.0205 19.375 24.296 19.375 24.5833C19.375 24.8707 19.2631 25.1462 19.0638 25.3494C18.8645 25.5525 18.5943 25.6667 18.3125 25.6667ZM37.4375 31.0833C37.4375 33.0946 36.6539 35.0234 35.2591 36.4456C33.8643 37.8677 31.9725 38.6667 30 38.6667C28.0275 38.6667 26.1357 37.8677 24.7409 36.4456C23.3461 35.0234 22.5625 33.0946 22.5625 31.0833C22.5625 29.0721 23.3461 27.1433 24.7409 25.7211C26.1357 24.299 28.0275 23.5 30 23.5C31.9725 23.5 33.8643 24.299 35.2591 25.7211C36.6539 27.1433 37.4375 29.0721 37.4375 31.0833V31.0833Z" fill="white"/>
</svg>
