<svg width="60" height="60" viewBox="0 0 60 60" fill="none" xmlns="http://www.w3.org/2000/svg">
<circle cx="30" cy="30" r="30" fill="#FF5656"/>
<path d="M39.2857 38.1429H35.5714V49H31.8571V38.1429H27.92L25.06 41.6352L29.4614 45.9057L26.8243 48.4752L22.4414 44.1867C21.7914 43.5714 21.42 42.721 21.3643 41.8343C21.3086 40.9476 21.5871 40.061 22.1629 39.3733L23.1657 38.1429H20.7143L24.4286 30.9048V25.4762C23.2771 26.3267 22.3486 27.4124 21.6986 28.661C21.0486 29.9276 20.7143 31.3029 20.7143 32.7143H17C17.0005 29.355 18.3703 26.1335 20.8082 23.7581C23.246 21.3828 26.5523 20.0481 30 20.0476C32.47 20.0476 34.8286 19.0886 36.5743 17.4057C38.3014 15.7048 39.2857 13.4067 39.2857 11H43C43 13.3886 42.2943 15.741 40.9757 17.7495C39.6644 19.773 37.7903 21.392 35.5714 22.4181V30.9048L39.2857 38.1429ZM33.7143 14.619C33.7143 15.3429 33.4914 16.0305 33.0829 16.6276C32.6743 17.2248 32.0986 17.6952 31.43 17.9667C30.7499 18.2383 30.0025 18.3077 29.282 18.166C28.5615 18.0243 27.9001 17.6779 27.3814 17.1705C26.8614 16.6638 26.5086 16.0305 26.36 15.3248C26.2114 14.619 26.2857 13.8952 26.5643 13.2438C26.8429 12.5743 27.3257 12.0133 27.9386 11.6152C28.5514 11.2171 29.2571 11 30 11C30.9843 11 31.9314 11.38 32.6186 12.0676C33.3243 12.7371 33.7143 13.66 33.7143 14.619V14.619Z" fill="white"/>
</svg>
