<svg width="206" height="35" viewBox="0 0 206 35" fill="none" xmlns="http://www.w3.org/2000/svg">
<path d="M46.718 11.5896V21.6206H45.528V14.2496C45.528 14.1516 45.5303 14.0466 45.535 13.9346C45.5443 13.8226 45.5537 13.7083 45.563 13.5916L42.119 19.8636C42.0117 20.0736 41.8483 20.1786 41.629 20.1786H41.433C41.2137 20.1786 41.0503 20.0736 40.943 19.8636L37.429 13.5636C37.457 13.8109 37.471 14.0396 37.471 14.2496V21.6206H36.281V11.5896H37.282C37.4033 11.5896 37.4967 11.6013 37.562 11.6246C37.6273 11.6479 37.6903 11.7133 37.751 11.8206L41.216 17.9946C41.272 18.1066 41.3257 18.2233 41.377 18.3446C41.433 18.4659 41.4843 18.5896 41.531 18.7156C41.5777 18.5896 41.6267 18.4659 41.678 18.3446C41.7293 18.2186 41.7853 18.0996 41.846 17.9876L45.248 11.8206C45.304 11.7133 45.3647 11.6479 45.43 11.6246C45.5 11.6013 45.5957 11.5896 45.717 11.5896H46.718ZM51.7592 14.4176C52.2772 14.4176 52.7439 14.5039 53.1592 14.6766C53.5745 14.8493 53.9292 15.0943 54.2232 15.4116C54.5172 15.7289 54.7412 16.1139 54.8952 16.5666C55.0539 17.0146 55.1332 17.5163 55.1332 18.0716C55.1332 18.6316 55.0539 19.1356 54.8952 19.5836C54.7412 20.0316 54.5172 20.4143 54.2232 20.7316C53.9292 21.0489 53.5745 21.2939 53.1592 21.4666C52.7439 21.6346 52.2772 21.7186 51.7592 21.7186C51.2365 21.7186 50.7652 21.6346 50.3452 21.4666C49.9299 21.2939 49.5752 21.0489 49.2812 20.7316C48.9872 20.4143 48.7609 20.0316 48.6022 19.5836C48.4482 19.1356 48.3712 18.6316 48.3712 18.0716C48.3712 17.5163 48.4482 17.0146 48.6022 16.5666C48.7609 16.1139 48.9872 15.7289 49.2812 15.4116C49.5752 15.0943 49.9299 14.8493 50.3452 14.6766C50.7652 14.5039 51.2365 14.4176 51.7592 14.4176ZM51.7592 20.7456C52.4592 20.7456 52.9819 20.5123 53.3272 20.0456C53.6725 19.5743 53.8452 18.9186 53.8452 18.0786C53.8452 17.2339 53.6725 16.5759 53.3272 16.1046C52.9819 15.6333 52.4592 15.3976 51.7592 15.3976C51.4045 15.3976 51.0942 15.4583 50.8282 15.5796C50.5669 15.7009 50.3475 15.8759 50.1702 16.1046C49.9975 16.3333 49.8669 16.6156 49.7782 16.9516C49.6942 17.2829 49.6522 17.6586 49.6522 18.0786C49.6522 18.9186 49.8249 19.5743 50.1702 20.0456C50.5202 20.5123 51.0499 20.7456 51.7592 20.7456ZM57.8966 15.9506C58.1206 15.4653 58.3959 15.0873 58.7226 14.8166C59.0492 14.5413 59.4482 14.4036 59.9196 14.4036C60.0689 14.4036 60.2112 14.4199 60.3466 14.4526C60.4866 14.4853 60.6102 14.5366 60.7176 14.6066L60.6266 15.5376C60.5986 15.6543 60.5286 15.7126 60.4166 15.7126C60.3512 15.7126 60.2556 15.6986 60.1296 15.6706C60.0036 15.6426 59.8612 15.6286 59.7026 15.6286C59.4786 15.6286 59.2779 15.6613 59.1006 15.7266C58.9279 15.7919 58.7716 15.8899 58.6316 16.0206C58.4962 16.1466 58.3726 16.3053 58.2606 16.4966C58.1532 16.6833 58.0552 16.8979 57.9666 17.1406V21.6206H56.7136V14.5296H57.4276C57.5629 14.5296 57.6562 14.5553 57.7076 14.6066C57.7589 14.6579 57.7939 14.7466 57.8126 14.8726L57.8966 15.9506ZM66.2721 17.3016C66.2721 17.0123 66.2301 16.7486 66.1461 16.5106C66.0667 16.2679 65.9477 16.0603 65.7891 15.8876C65.6351 15.7103 65.4461 15.5749 65.2221 15.4816C64.9981 15.3836 64.7437 15.3346 64.4591 15.3346C63.8617 15.3346 63.3881 15.5096 63.0381 15.8596C62.6927 16.2049 62.4781 16.6856 62.3941 17.3016H66.2721ZM67.2801 20.6266C67.1261 20.8133 66.9417 20.9766 66.7271 21.1166C66.5124 21.2519 66.2814 21.3639 66.0341 21.4526C65.7914 21.5413 65.5394 21.6066 65.2781 21.6486C65.0167 21.6953 64.7577 21.7186 64.5011 21.7186C64.0111 21.7186 63.5584 21.6369 63.1431 21.4736C62.7324 21.3056 62.3754 21.0629 62.0721 20.7456C61.7734 20.4236 61.5401 20.0269 61.3721 19.5556C61.2041 19.0843 61.1201 18.5429 61.1201 17.9316C61.1201 17.4369 61.1947 16.9749 61.3441 16.5456C61.4981 16.1163 61.7174 15.7453 62.0021 15.4326C62.2867 15.1153 62.6344 14.8679 63.0451 14.6906C63.4557 14.5086 63.9177 14.4176 64.4311 14.4176C64.8557 14.4176 65.2477 14.4899 65.6071 14.6346C65.9711 14.7746 66.2837 14.9799 66.5451 15.2506C66.8111 15.5166 67.0187 15.8479 67.1681 16.2446C67.3174 16.6366 67.3921 17.0846 67.3921 17.5886C67.3921 17.7846 67.3711 17.9153 67.3291 17.9806C67.2871 18.0459 67.2077 18.0786 67.0911 18.0786H62.3521C62.3661 18.5266 62.4267 18.9163 62.5341 19.2476C62.6461 19.5789 62.8001 19.8566 62.9961 20.0806C63.1921 20.2999 63.4254 20.4656 63.6961 20.5776C63.9667 20.6849 64.2701 20.7386 64.6061 20.7386C64.9187 20.7386 65.1871 20.7036 65.4111 20.6336C65.6397 20.5589 65.8357 20.4796 65.9991 20.3956C66.1624 20.3116 66.2977 20.2346 66.4051 20.1646C66.5171 20.0899 66.6127 20.0526 66.6921 20.0526C66.7947 20.0526 66.8741 20.0923 66.9301 20.1716L67.2801 20.6266ZM72.3926 16.8956H75.8506V17.9526H72.3926V16.8956ZM82.5349 19.9126C82.7636 20.2206 83.0133 20.4376 83.2839 20.5636C83.5546 20.6896 83.8579 20.7526 84.1939 20.7526C84.8566 20.7526 85.3653 20.5169 85.7199 20.0456C86.0746 19.5743 86.2519 18.9023 86.2519 18.0296C86.2519 17.5676 86.2099 17.1709 86.1259 16.8396C86.0466 16.5083 85.9299 16.2376 85.7759 16.0276C85.6219 15.8129 85.4329 15.6566 85.2089 15.5586C84.9849 15.4606 84.7306 15.4116 84.4459 15.4116C84.0399 15.4116 83.6829 15.5049 83.3749 15.6916C83.0716 15.8783 82.7916 16.1419 82.5349 16.4826V19.9126ZM82.4719 15.6286C82.7706 15.2599 83.1159 14.9636 83.5079 14.7396C83.8999 14.5156 84.3479 14.4036 84.8519 14.4036C85.2626 14.4036 85.6336 14.4829 85.9649 14.6416C86.2963 14.7956 86.5786 15.0266 86.8119 15.3346C87.0453 15.6379 87.2249 16.0159 87.3509 16.4686C87.4769 16.9213 87.5399 17.4416 87.5399 18.0296C87.5399 18.5523 87.4699 19.0399 87.3299 19.4926C87.1899 19.9406 86.9869 20.3303 86.7209 20.6616C86.4596 20.9883 86.1376 21.2473 85.7549 21.4386C85.3769 21.6253 84.9499 21.7186 84.4739 21.7186C84.0399 21.7186 83.6666 21.6463 83.3539 21.5016C83.0459 21.3523 82.7729 21.1469 82.5349 20.8856V24.0216H81.2819V14.5296H82.0309C82.2083 14.5296 82.3179 14.6159 82.3599 14.7886L82.4719 15.6286ZM93.8619 17.3016C93.8619 17.0123 93.8199 16.7486 93.7359 16.5106C93.6566 16.2679 93.5376 16.0603 93.3789 15.8876C93.2249 15.7103 93.0359 15.5749 92.8119 15.4816C92.5879 15.3836 92.3336 15.3346 92.0489 15.3346C91.4516 15.3346 90.9779 15.5096 90.6279 15.8596C90.2826 16.2049 90.0679 16.6856 89.9839 17.3016H93.8619ZM94.8699 20.6266C94.7159 20.8133 94.5316 20.9766 94.3169 21.1166C94.1022 21.2519 93.8712 21.3639 93.6239 21.4526C93.3812 21.5413 93.1292 21.6066 92.8679 21.6486C92.6066 21.6953 92.3476 21.7186 92.0909 21.7186C91.6009 21.7186 91.1482 21.6369 90.7329 21.4736C90.3222 21.3056 89.9652 21.0629 89.6619 20.7456C89.3632 20.4236 89.1299 20.0269 88.9619 19.5556C88.7939 19.0843 88.7099 18.5429 88.7099 17.9316C88.7099 17.4369 88.7846 16.9749 88.9339 16.5456C89.0879 16.1163 89.3072 15.7453 89.5919 15.4326C89.8766 15.1153 90.2242 14.8679 90.6349 14.6906C91.0456 14.5086 91.5076 14.4176 92.0209 14.4176C92.4456 14.4176 92.8376 14.4899 93.1969 14.6346C93.5609 14.7746 93.8736 14.9799 94.1349 15.2506C94.4009 15.5166 94.6086 15.8479 94.7579 16.2446C94.9072 16.6366 94.9819 17.0846 94.9819 17.5886C94.9819 17.7846 94.9609 17.9153 94.9189 17.9806C94.8769 18.0459 94.7976 18.0786 94.6809 18.0786H89.9419C89.9559 18.5266 90.0166 18.9163 90.1239 19.2476C90.2359 19.5789 90.3899 19.8566 90.5859 20.0806C90.7819 20.2999 91.0152 20.4656 91.2859 20.5776C91.5566 20.6849 91.8599 20.7386 92.1959 20.7386C92.5086 20.7386 92.7769 20.7036 93.0009 20.6336C93.2296 20.5589 93.4256 20.4796 93.5889 20.3956C93.7522 20.3116 93.8876 20.2346 93.9949 20.1646C94.1069 20.0899 94.2026 20.0526 94.2819 20.0526C94.3846 20.0526 94.4639 20.0923 94.5199 20.1716L94.8699 20.6266ZM101.447 15.7896C101.41 15.8409 101.373 15.8806 101.335 15.9086C101.298 15.9366 101.247 15.9506 101.181 15.9506C101.111 15.9506 101.034 15.9226 100.95 15.8666C100.866 15.8059 100.761 15.7406 100.635 15.6706C100.514 15.6006 100.362 15.5376 100.18 15.4816C100.003 15.4209 99.7837 15.3906 99.5224 15.3906C99.1724 15.3906 98.8644 15.4536 98.5984 15.5796C98.3324 15.7009 98.1084 15.8783 97.9264 16.1116C97.7491 16.3449 97.6137 16.6273 97.5204 16.9586C97.4317 17.2899 97.3874 17.6609 97.3874 18.0716C97.3874 18.5009 97.4364 18.8836 97.5344 19.2196C97.6324 19.5509 97.7701 19.8309 97.9474 20.0596C98.1294 20.2836 98.3464 20.4563 98.5984 20.5776C98.8551 20.6943 99.1421 20.7526 99.4594 20.7526C99.7627 20.7526 100.012 20.7176 100.208 20.6476C100.404 20.5729 100.565 20.4913 100.691 20.4026C100.822 20.3139 100.929 20.2346 101.013 20.1646C101.102 20.0899 101.188 20.0526 101.272 20.0526C101.375 20.0526 101.454 20.0923 101.51 20.1716L101.86 20.6266C101.706 20.8179 101.531 20.9813 101.335 21.1166C101.139 21.2519 100.927 21.3663 100.698 21.4596C100.474 21.5483 100.239 21.6136 99.9914 21.6556C99.7441 21.6976 99.4921 21.7186 99.2354 21.7186C98.7921 21.7186 98.3791 21.6369 97.9964 21.4736C97.6184 21.3103 97.2894 21.0746 97.0094 20.7666C96.7294 20.4539 96.5101 20.0713 96.3514 19.6186C96.1927 19.1659 96.1134 18.6503 96.1134 18.0716C96.1134 17.5443 96.1857 17.0566 96.3304 16.6086C96.4797 16.1606 96.6944 15.7756 96.9744 15.4536C97.2591 15.1269 97.6067 14.8726 98.0174 14.6906C98.4327 14.5086 98.9087 14.4176 99.4454 14.4176C99.9447 14.4176 100.383 14.4993 100.761 14.6626C101.144 14.8213 101.482 15.0476 101.776 15.3416L101.447 15.7896ZM109.092 15.4816H106.369V21.6206H105.123V15.4816H102.4V14.5296H109.092V15.4816ZM112.982 14.4176C113.5 14.4176 113.967 14.5039 114.382 14.6766C114.797 14.8493 115.152 15.0943 115.446 15.4116C115.74 15.7289 115.964 16.1139 116.118 16.5666C116.277 17.0146 116.356 17.5163 116.356 18.0716C116.356 18.6316 116.277 19.1356 116.118 19.5836C115.964 20.0316 115.74 20.4143 115.446 20.7316C115.152 21.0489 114.797 21.2939 114.382 21.4666C113.967 21.6346 113.5 21.7186 112.982 21.7186C112.459 21.7186 111.988 21.6346 111.568 21.4666C111.153 21.2939 110.798 21.0489 110.504 20.7316C110.21 20.4143 109.984 20.0316 109.825 19.5836C109.671 19.1356 109.594 18.6316 109.594 18.0716C109.594 17.5163 109.671 17.0146 109.825 16.5666C109.984 16.1139 110.21 15.7289 110.504 15.4116C110.798 15.0943 111.153 14.8493 111.568 14.6766C111.988 14.5039 112.459 14.4176 112.982 14.4176ZM112.982 20.7456C113.682 20.7456 114.205 20.5123 114.55 20.0456C114.895 19.5743 115.068 18.9186 115.068 18.0786C115.068 17.2339 114.895 16.5759 114.55 16.1046C114.205 15.6333 113.682 15.3976 112.982 15.3976C112.627 15.3976 112.317 15.4583 112.051 15.5796C111.79 15.7009 111.57 15.8759 111.393 16.1046C111.22 16.3333 111.09 16.6156 111.001 16.9516C110.917 17.2829 110.875 17.6586 110.875 18.0786C110.875 18.9186 111.048 19.5743 111.393 20.0456C111.743 20.5123 112.273 20.7456 112.982 20.7456ZM119.189 19.9126C119.418 20.2206 119.668 20.4376 119.938 20.5636C120.209 20.6896 120.512 20.7526 120.848 20.7526C121.511 20.7526 122.02 20.5169 122.374 20.0456C122.729 19.5743 122.906 18.9023 122.906 18.0296C122.906 17.5676 122.864 17.1709 122.78 16.8396C122.701 16.5083 122.584 16.2376 122.43 16.0276C122.276 15.8129 122.087 15.6566 121.863 15.5586C121.639 15.4606 121.385 15.4116 121.1 15.4116C120.694 15.4116 120.337 15.5049 120.029 15.6916C119.726 15.8783 119.446 16.1419 119.189 16.4826V19.9126ZM119.126 15.6286C119.425 15.2599 119.77 14.9636 120.162 14.7396C120.554 14.5156 121.002 14.4036 121.506 14.4036C121.917 14.4036 122.288 14.4829 122.619 14.6416C122.951 14.7956 123.233 15.0266 123.466 15.3346C123.7 15.6379 123.879 16.0159 124.005 16.4686C124.131 16.9213 124.194 17.4416 124.194 18.0296C124.194 18.5523 124.124 19.0399 123.984 19.4926C123.844 19.9406 123.641 20.3303 123.375 20.6616C123.114 20.9883 122.792 21.2473 122.409 21.4386C122.031 21.6253 121.604 21.7186 121.128 21.7186C120.694 21.7186 120.321 21.6463 120.008 21.5016C119.7 21.3523 119.427 21.1469 119.189 20.8856V24.0216H117.936V14.5296H118.685C118.863 14.5296 118.972 14.6159 119.014 14.7886L119.126 15.6286ZM129.613 18.4286C129.039 18.4473 128.549 18.4939 128.143 18.5686C127.742 18.6386 127.413 18.7319 127.156 18.8486C126.904 18.9653 126.72 19.1029 126.603 19.2616C126.491 19.4203 126.435 19.5976 126.435 19.7936C126.435 19.9803 126.466 20.1413 126.526 20.2766C126.587 20.4119 126.669 20.5239 126.771 20.6126C126.879 20.6966 127.002 20.7596 127.142 20.8016C127.287 20.8389 127.441 20.8576 127.604 20.8576C127.824 20.8576 128.024 20.8366 128.206 20.7946C128.388 20.7479 128.559 20.6826 128.717 20.5986C128.881 20.5146 129.035 20.4143 129.179 20.2976C129.329 20.1809 129.473 20.0479 129.613 19.8986V18.4286ZM125.588 15.5306C125.98 15.1526 126.403 14.8703 126.855 14.6836C127.308 14.4969 127.81 14.4036 128.36 14.4036C128.757 14.4036 129.109 14.4689 129.417 14.5996C129.725 14.7303 129.984 14.9123 130.194 15.1456C130.404 15.3789 130.563 15.6613 130.67 15.9926C130.778 16.3239 130.831 16.6879 130.831 17.0846V21.6206H130.278C130.157 21.6206 130.064 21.6019 129.998 21.5646C129.933 21.5226 129.882 21.4433 129.844 21.3266L129.704 20.6546C129.518 20.8273 129.336 20.9813 129.158 21.1166C128.981 21.2473 128.794 21.3593 128.598 21.4526C128.402 21.5413 128.192 21.6089 127.968 21.6556C127.749 21.7069 127.504 21.7326 127.233 21.7326C126.958 21.7326 126.699 21.6953 126.456 21.6206C126.214 21.5413 126.001 21.4246 125.819 21.2706C125.642 21.1166 125.5 20.9229 125.392 20.6896C125.29 20.4516 125.238 20.1716 125.238 19.8496C125.238 19.5696 125.315 19.3013 125.469 19.0446C125.623 18.7833 125.873 18.5523 126.218 18.3516C126.564 18.1509 127.014 17.9876 127.569 17.8616C128.125 17.7309 128.806 17.6563 129.613 17.6376V17.0846C129.613 16.5339 129.494 16.1186 129.256 15.8386C129.018 15.5539 128.671 15.4116 128.213 15.4116C127.905 15.4116 127.646 15.4513 127.436 15.5306C127.231 15.6053 127.051 15.6916 126.897 15.7896C126.748 15.8829 126.617 15.9693 126.505 16.0486C126.398 16.1233 126.291 16.1606 126.183 16.1606C126.099 16.1606 126.027 16.1396 125.966 16.0976C125.906 16.0509 125.854 15.9949 125.812 15.9296L125.588 15.5306ZM138.637 14.5296V21.6206H137.384V18.3026H133.982V21.6206H132.729V14.5296H133.982V17.3576H137.384V14.5296H138.637ZM149.086 20.7106V15.5096H146.839C146.792 16.2376 146.727 16.8816 146.643 17.4416C146.559 18.0016 146.461 18.4939 146.349 18.9186C146.242 19.3386 146.12 19.6956 145.985 19.9896C145.854 20.2836 145.717 20.5239 145.572 20.7106H149.086ZM151.592 20.6756V23.6786C151.592 23.7999 151.557 23.8933 151.487 23.9586C151.422 24.0286 151.335 24.0636 151.228 24.0636H150.465V21.6206H144.501V23.7066C144.501 23.7953 144.473 23.8769 144.417 23.9516C144.366 24.0263 144.279 24.0636 144.158 24.0636H143.374V20.7106H143.605C143.768 20.7106 143.929 20.6826 144.088 20.6266C144.251 20.5706 144.408 20.4656 144.557 20.3116C144.706 20.1529 144.846 19.9313 144.977 19.6466C145.112 19.3619 145.234 18.9909 145.341 18.5336C145.448 18.0763 145.542 17.5209 145.621 16.8676C145.7 16.2096 145.763 15.4303 145.81 14.5296H150.297V20.6756H151.592ZM159.07 21.6206H157.824V15.5096H155.584C155.528 16.4103 155.444 17.1896 155.332 17.8476C155.22 18.5009 155.085 19.0586 154.926 19.5206C154.772 19.9779 154.597 20.3513 154.401 20.6406C154.21 20.9253 154.007 21.1469 153.792 21.3056C153.582 21.4643 153.363 21.5716 153.134 21.6276C152.91 21.6836 152.686 21.7116 152.462 21.7116C152.066 21.7116 151.867 21.6486 151.867 21.5226V20.7316H152.231C152.39 20.7316 152.551 20.7036 152.714 20.6476C152.878 20.5916 153.036 20.4843 153.19 20.3256C153.349 20.1669 153.501 19.9453 153.645 19.6606C153.79 19.3713 153.921 18.9979 154.037 18.5406C154.159 18.0786 154.261 17.5209 154.345 16.8676C154.434 16.2096 154.502 15.4303 154.548 14.5296H159.07V21.6206ZM164.775 17.8406V15.3696H163.585C163.319 15.3696 163.095 15.4093 162.913 15.4886C162.731 15.5633 162.584 15.6613 162.472 15.7826C162.364 15.8993 162.287 16.0323 162.241 16.1816C162.194 16.3263 162.171 16.4709 162.171 16.6156C162.171 16.9983 162.311 17.2993 162.591 17.5186C162.871 17.7333 163.253 17.8406 163.739 17.8406H164.775ZM165.965 14.5296V21.6206H164.775V18.6316H164.229C164.098 18.6316 163.988 18.6433 163.9 18.6666C163.816 18.6853 163.741 18.7133 163.676 18.7506C163.615 18.7879 163.561 18.8369 163.515 18.8976C163.468 18.9536 163.419 19.0189 163.368 19.0936L161.814 21.1866C161.734 21.3359 161.636 21.4456 161.52 21.5156C161.408 21.5856 161.242 21.6206 161.023 21.6206H160.155L162.213 18.9466C162.381 18.6666 162.602 18.4799 162.878 18.3866C162.518 18.3399 162.215 18.2559 161.968 18.1346C161.72 18.0133 161.517 17.8709 161.359 17.7076C161.205 17.5396 161.093 17.3553 161.023 17.1546C160.953 16.9539 160.918 16.7509 160.918 16.5456C160.918 16.3029 160.964 16.0603 161.058 15.8176C161.156 15.5749 161.31 15.3603 161.52 15.1736C161.73 14.9823 162 14.8283 162.332 14.7116C162.668 14.5903 163.074 14.5296 163.55 14.5296H165.965ZM176.416 20.7106V15.5096H174.169C174.122 16.2376 174.057 16.8816 173.973 17.4416C173.889 18.0016 173.791 18.4939 173.679 18.9186C173.572 19.3386 173.45 19.6956 173.315 19.9896C173.184 20.2836 173.047 20.5239 172.902 20.7106H176.416ZM178.922 20.6756V23.6786C178.922 23.7999 178.887 23.8933 178.817 23.9586C178.752 24.0286 178.665 24.0636 178.558 24.0636H177.795V21.6206H171.831V23.7066C171.831 23.7953 171.803 23.8769 171.747 23.9516C171.696 24.0263 171.609 24.0636 171.488 24.0636H170.704V20.7106H170.935C171.098 20.7106 171.259 20.6826 171.418 20.6266C171.581 20.5706 171.738 20.4656 171.887 20.3116C172.036 20.1529 172.176 19.9313 172.307 19.6466C172.442 19.3619 172.564 18.9909 172.671 18.5336C172.778 18.0763 172.872 17.5209 172.951 16.8676C173.03 16.2096 173.093 15.4303 173.14 14.5296H177.627V20.6756H178.922ZM185.974 14.5296L182.019 23.7136C181.977 23.8069 181.923 23.8816 181.858 23.9376C181.797 23.9936 181.702 24.0216 181.571 24.0216H180.647L181.942 21.2076L179.016 14.5296H180.094C180.201 14.5296 180.285 14.5576 180.346 14.6136C180.411 14.6649 180.456 14.7233 180.479 14.7886L182.376 19.2546C182.451 19.4506 182.514 19.6559 182.565 19.8706C182.63 19.6513 182.7 19.4436 182.775 19.2476L184.616 14.7886C184.644 14.7139 184.691 14.6533 184.756 14.6066C184.826 14.5553 184.903 14.5296 184.987 14.5296H185.974ZM196.616 14.5296V21.6206H187.075V14.5296H188.328V20.6756H191.219V14.5296H192.472V20.6756H195.363V14.5296H196.616ZM204.67 14.5296V21.6206H203.424V16.8046C203.424 16.7113 203.428 16.6109 203.438 16.5036C203.447 16.3963 203.459 16.2889 203.473 16.1816C203.431 16.2749 203.389 16.3613 203.347 16.4406C203.305 16.5199 203.26 16.5923 203.214 16.6576L199.791 21.3126C199.739 21.3873 199.674 21.4596 199.595 21.5296C199.52 21.5949 199.436 21.6276 199.343 21.6276H198.587V14.5366H199.84V19.3526C199.84 19.4413 199.835 19.5393 199.826 19.6466C199.816 19.7493 199.805 19.8543 199.791 19.9616C199.833 19.8729 199.875 19.7913 199.917 19.7166C199.959 19.6373 200.001 19.5649 200.043 19.4996L203.466 14.8446C203.517 14.7699 203.582 14.6999 203.662 14.6346C203.741 14.5646 203.827 14.5296 203.921 14.5296H204.67Z" fill="white"/>
<path d="M11.25 0.00230371C11.5426 0.00220619 11.8259 0.104719 12.0506 0.291989C12.2754 0.479259 12.4273 0.739422 12.48 1.02717L12.5 1.25214V8.75115C12.5003 10.1918 12.0028 11.5883 11.0916 12.7043C10.1805 13.8203 8.91171 14.5872 7.5 14.8753V33.7479C7.50058 34.0602 7.38418 34.3614 7.17373 34.5922C6.96328 34.823 6.67403 34.9667 6.36295 34.9949C6.05186 35.0231 5.74148 34.9338 5.49292 34.7447C5.24437 34.5555 5.07565 34.2802 5.02 33.9728L5 33.7479V14.8753C3.66041 14.6014 2.44756 13.896 1.54721 12.8671C0.646855 11.8382 0.108642 10.5425 0.0150022 9.1786L2.12047e-06 8.75115V1.25214C-0.000572912 0.939816 0.115825 0.638594 0.326273 0.407793C0.536722 0.176991 0.825968 0.0333349 1.13706 0.0051149C1.44814 -0.0231051 1.75853 0.0661557 2.00708 0.25532C2.25564 0.444483 2.42435 0.719841 2.48 1.02717L2.5 1.25214V8.75115C2.49959 9.52687 2.73982 10.2836 3.18757 10.9171C3.63532 11.5506 4.26856 12.0296 5 12.2882V1.25214C4.99943 0.939816 5.11582 0.638594 5.32627 0.407793C5.53672 0.176991 5.82597 0.0333349 6.13706 0.0051149C6.44814 -0.0231051 6.75852 0.0661557 7.00708 0.25532C7.25564 0.444483 7.42435 0.719841 7.48 1.02717L7.5 1.25214V12.2857C8.845 11.8107 9.8375 10.5909 9.9825 9.1236L10 8.75115V1.25214C10 0.920662 10.1317 0.602762 10.3661 0.368372C10.6005 0.133983 10.9185 0.00230371 11.25 0.00230371V0.00230371ZM23.75 0.00230371C24.0426 0.00220619 24.3259 0.104719 24.5506 0.291989C24.7754 0.479259 24.9273 0.739422 24.98 1.02717L25 1.25214V33.7479C25.0006 34.0602 24.8842 34.3614 24.6737 34.5922C24.4633 34.823 24.174 34.9667 23.8629 34.9949C23.5519 35.0231 23.2415 34.9338 22.9929 34.7447C22.7444 34.5555 22.5756 34.2802 22.52 33.9728L22.5 33.7479V19.9997H18.75C18.4574 19.9998 18.1741 19.8973 17.9494 19.71C17.7246 19.5227 17.5727 19.2626 17.52 18.9748L17.5 18.7498V6.25148C17.5 4.5941 18.1585 3.00459 19.3306 1.83265C20.5027 0.660697 22.0924 0.00230371 23.75 0.00230371V0.00230371Z" fill="white"/>
</svg>
